HIERARCHY
ROOT joint_Root
{
	OFFSET 0.0 0.0 0.0
	CHANNELS 6 Xposition Yposition Zposition Zrotation Xrotation Yrotation 
	JOINT Hips
	{
		OFFSET 4.5925 91.4895 -427.239
		CHANNELS 6 Xposition Yposition Zposition Zrotation Xrotation Yrotation 
		JOINT Spine
		{
			OFFSET 15.7357 0.0 0.0
			CHANNELS 6 Xposition Yposition Zposition Zrotation Xrotation Yrotation 
			JOINT Chest
			{
				OFFSET 8.98455 -0.406207 0.0
				CHANNELS 6 Xposition Yposition Zposition Zrotation Xrotation Yrotation 
				JOINT Neck
				{
					OFFSET 16.3773 0.0 0.0
					CHANNELS 6 Xposition Yposition Zposition Zrotation Xrotation Yrotation 
					JOINT Head
					{
						OFFSET 6.45672 0.0 0.0
						CHANNELS 6 Xposition Yposition Zposition Zrotation Xrotation Yrotation 
						End Site
						{
							OFFSET 0.0 0.0 0.0
						}
					}
				}
				JOINT Shoulder_L
				{
					OFFSET 12.9942 -0.242716 4.98039
					CHANNELS 6 Xposition Yposition Zposition Zrotation Xrotation Yrotation 
					JOINT UpperArm_L
					{
						OFFSET 5.34809 0.0 0.0
						CHANNELS 6 Xposition Yposition Zposition Zrotation Xrotation Yrotation 
						JOINT LowerArm_L
						{
							OFFSET 24.3286 1.87007e-05 0.0
							CHANNELS 6 Xposition Yposition Zposition Zrotation Xrotation Yrotation 
							JOINT Hand_L
							{
								OFFSET 22.2916 0.0 0.0
								CHANNELS 6 Xposition Yposition Zposition Zrotation Xrotation Yrotation 
								End Site
								{
									OFFSET 0.0 0.0 0.0
								}
							}
						}
					}
				}
				JOINT Shoulder_R
				{
					OFFSET 12.9945 -0.242716 -4.98039
					CHANNELS 6 Xposition Yposition Zposition Zrotation Xrotation Yrotation 
					JOINT UpperArm_R
					{
						OFFSET -5.34813 0.0 0.0
						CHANNELS 6 Xposition Yposition Zposition Zrotation Xrotation Yrotation 
						JOINT LowerArm_R
						{
							OFFSET -24.3289 0.000322201 0.0
							CHANNELS 6 Xposition Yposition Zposition Zrotation Xrotation Yrotation 
							JOINT Hand_R
							{
								OFFSET -22.2915 -0.000108084 0.0
								CHANNELS 6 Xposition Yposition Zposition Zrotation Xrotation Yrotation 
								End Site
								{
									OFFSET 0.0 0.0 0.0
								}
							}
						}
					}
				}
			}
		}
		JOINT UpperLeg_L
		{
			OFFSET -2.19248 -6.46944 0.0
			CHANNELS 6 Xposition Yposition Zposition Zrotation Xrotation Yrotation 
			JOINT LowerLeg_L
			{
				OFFSET 39.0811 0.0 -1.23785e-05
				CHANNELS 6 Xposition Yposition Zposition Zrotation Xrotation Yrotation 
				JOINT Foot_L
				{
					OFFSET 40.9854 0.0 -1.26872e-05
					CHANNELS 6 Xposition Yposition Zposition Zrotation Xrotation Yrotation 
					JOINT Toes_L
					{
						OFFSET 11.7543 0.0 0.0
						CHANNELS 6 Xposition Yposition Zposition Zrotation Xrotation Yrotation 
						End Site
						{
							OFFSET 0.0 0.0 0.0
						}
					}
				}
			}
		}
		JOINT UpperLeg_R
		{
			OFFSET -2.19251 6.46944 0.0
			CHANNELS 6 Xposition Yposition Zposition Zrotation Xrotation Yrotation 
			JOINT LowerLeg_R
			{
				OFFSET -39.0811 -0.00228153 -0.0401928
				CHANNELS 6 Xposition Yposition Zposition Zrotation Xrotation Yrotation 
				JOINT Foot_R
				{
					OFFSET -40.9854 0.0 0.0
					CHANNELS 6 Xposition Yposition Zposition Zrotation Xrotation Yrotation 
					JOINT Toes_R
					{
						OFFSET -11.7543 0.0 0.0
						CHANNELS 6 Xposition Yposition Zposition Zrotation Xrotation Yrotation 
						End Site
						{
							OFFSET 0.0 0.0 0.0
						}
					}
				}
			}
		}
	}
}
MOTION
Frames:	4
Frame Time:	0.0333333
0.000000 0.000000 0.000000 0.000000 0.000000 -0.000000 75.494200 89.642000 180.034000 -86.735900 58.961100 -179.524000 15.735700 0.000005 -0.000001 92.460200 81.639700 -92.782500 8.984550 -0.406207 -0.000000 8.941780 0.710718 -0.699595 16.377300 -0.000001 -0.000001 3.430890 8.524050 -1.764930 6.456720 -0.000001 -0.000000 1.449030 13.546600 -6.110930 12.994200 -0.242716 4.980390 -91.127400 3.332760 -71.298100 5.348090 -0.000007 -0.000001 -62.928700 31.516900 -19.983400 24.328600 0.000019 0.000005 8.034690 15.946600 -27.192500 22.291600 -0.000001 0.000005 13.781800 5.190620 2.953520 12.994500 -0.242716 -4.980390 88.462600 9.311590 -80.581800 -5.348130 -0.000001 -0.000004 -58.599000 28.305700 -13.994700 -24.328900 0.000322 -0.000009 -0.071749 -0.128610 -28.787600 -22.291500 -0.000108 -0.000004 15.164700 5.399320 -2.914670 -2.192480 -6.469440 -0.000000 179.333000 -5.339390 -15.426500 39.081100 -0.000007 -0.000012 -0.245260 0.309731 38.374400 40.985400 -0.000006 -0.000013 3.578130 -0.724508 -70.260400 11.754300 -0.000000 0.000003 -0.000279 -0.002449 -16.669000 -2.192510 6.469440 -0.000001 175.296000 14.694800 158.685000 -39.081100 -0.002282 -0.040193 0.217045 -0.097830 65.420800 -40.985400 0.000008 0.000006 1.385250 -1.003830 -56.829300 -11.754300 -0.000006 -0.000006 -0.012999 -0.124827 -21.663200
0.000000 0.000000 0.000000 0.000000 0.000000 -0.000000 77.168900 89.887400 179.354000 -86.853400 57.422400 -179.492000 15.735700 0.000005 -0.000001 91.657100 81.706700 -91.942400 8.984550 -0.406207 -0.000000 8.815020 0.474626 -0.606668 16.377300 -0.000001 -0.000001 3.332330 8.387290 -1.767110 6.456720 -0.000001 -0.000000 1.366860 13.440500 -6.022300 12.994200 -0.242716 4.980390 -91.032400 3.064310 -71.371400 5.348090 -0.000007 -0.000001 -62.512100 31.620200 -21.420700 24.328600 0.000019 0.000005 8.891740 15.071500 -31.035500 22.291600 -0.000001 0.000005 14.122200 5.210320 2.459170 12.994500 -0.242716 -4.980390 88.448000 9.266300 -80.448700 -5.348130 -0.000001 -0.000004 -59.429100 28.817900 -12.670000 -24.328900 0.000322 -0.000009 0.022042 0.042633 -28.468800 -22.291500 -0.000108 -0.000004 14.139200 5.390130 -2.618260 -2.192480 -6.469440 -0.000000 179.649000 -4.642620 -13.640800 39.081100 -0.000007 -0.000012 -0.239403 0.315895 37.157300 40.985400 -0.000006 -0.000013 3.521930 0.092154 -70.904600 11.754300 -0.000000 0.000003 -0.000324 -0.002776 -16.680700 -2.192510 6.469440 -0.000001 175.439000 14.969000 157.622000 -39.081100 -0.002282 -0.040193 0.173764 -0.102135 59.085800 -40.985400 0.000008 0.000006 1.085450 -0.812410 -58.488600 -11.754300 -0.000006 -0.000006 -0.013379 -0.127359 -21.767000
0.000000 0.000000 0.000000 0.000000 0.000000 -0.000000 78.815800 90.030800 178.747000 -87.287700 55.682200 -179.282000 15.735700 0.000005 -0.000001 90.640400 81.785200 -90.909700 8.984550 -0.406207 -0.000000 8.663040 0.180628 -0.551665 16.377300 -0.000001 -0.000001 3.253410 8.225750 -1.764750 6.456720 -0.000001 -0.000000 1.295960 13.288000 -5.973350 12.994200 -0.242716 4.980390 -90.980000 2.921760 -71.449200 5.348090 -0.000007 -0.000001 -61.973300 31.854100 -22.754300 24.328600 0.000019 0.000005 9.307910 13.750800 -34.587500 22.291600 -0.000001 0.000005 14.395700 5.225050 2.083080 12.994500 -0.242716 -4.980390 88.398300 9.370960 -80.255600 -5.348130 -0.000001 -0.000004 -59.938500 29.113200 -11.511900 -24.328900 0.000322 -0.000009 0.022209 0.043513 -28.146800 -22.291500 -0.000108 -0.000004 13.598900 5.379640 -2.287020 -2.192480 -6.469440 -0.000000 179.823000 -3.673210 -12.138200 39.081100 -0.000007 -0.000012 -0.238261 0.326089 36.154700 40.985400 -0.000006 -0.000013 3.400230 0.830463 -71.568200 11.754300 -0.000000 0.000003 -0.000297 -0.002580 -16.673700 -2.192510 6.469440 -0.000001 175.360000 15.556400 157.507000 -39.081100 -0.002282 -0.040193 0.124869 -0.101954 50.027100 -40.985400 0.000008 0.000006 0.833724 -0.940832 -59.117400 -11.754300 -0.000006 -0.000006 -0.013763 -0.129882 -21.870500
0.000000 0.000000 0.000000 0.000000 0.000000 -0.000000 80.477900 90.069400 178.192000 -88.024700 53.762200 -178.945000 15.735700 0.000005 -0.000001 89.563400 81.863900 -89.866500 8.984550 -0.406207 -0.000000 8.505470 -0.125363 -0.596394 16.377300 -0.000001 -0.000001 3.132330 8.046480 -1.767890 6.456720 -0.000001 -0.000000 1.187780 13.140400 -5.881350 12.994200 -0.242716 4.980390 -90.948900 2.838250 -71.505700 5.348090 -0.000007 -0.000001 -61.406900 32.085500 -23.922400 24.328600 0.000019 0.000005 10.118200 13.182400 -38.043000 22.291600 -0.000001 0.000005 14.617200 5.231750 1.910360 12.994500 -0.242716 -4.980390 88.352600 9.473650 -80.088500 -5.348130 -0.000001 -0.000004 -60.455200 28.988000 -10.589900 -24.328900 0.000322 -0.000009 0.131876 0.255227 -27.515500 -22.291500 -0.000108 -0.000004 13.600500 5.375270 -2.150430 -2.192480 -6.469440 -0.000000 179.843000 -2.104710 -10.892800 39.081100 -0.000007 -0.000012 -0.260968 0.367414 35.386000 40.985400 -0.000006 -0.000013 3.126490 1.282280 -72.308100 11.754300 -0.000000 0.000003 -0.000297 -0.002583 -16.673800 -2.192510 6.469440 -0.000001 175.104000 16.730500 157.990000 -39.081100 -0.002282 -0.040193 0.079705 -0.093288 39.325800 -40.985400 0.000008 0.000006 0.402740 -0.637895 -58.403500 -11.754300 -0.000006 -0.000006 -0.013559 -0.128544 -21.815600
